<?xml version="1.0" encoding="UTF-8" standalone="no"?>
<!-- Created with Inkscape (http://www.inkscape.org/) -->
<svg xmlns:dc="http://purl.org/dc/elements/1.1/" xmlns:cc="http://web.resource.org/cc/" xmlns:rdf="http://www.w3.org/1999/02/22-rdf-syntax-ns#" xmlns:svg="http://www.w3.org/2000/svg" xmlns="http://www.w3.org/2000/svg" xmlns:sodipodi="http://sodipodi.sourceforge.net/DTD/sodipodi-0.dtd" xmlns:inkscape="http://www.inkscape.org/namespaces/inkscape" width="284.98837" height="158.88884" id="svg2" sodipodi:version="0.32" inkscape:version="0.44.1" sodipodi:docbase="C:\Documents and Settings\emunsing\My Documents\art\symbols" sodipodi:docname="bicycle.svg" version="1.0" inkscape:export-filename="C:\Documents and Settings\emunsing\My Documents\art\symbols\bicycle.png" inkscape:export-xdpi="29.369619" inkscape:export-ydpi="29.369619">
  <defs id="defs4"/>
  <sodipodi:namedview id="base" pagecolor="#ffffff" bordercolor="#666666" borderopacity="1.0" gridtolerance="10000" guidetolerance="10" objecttolerance="10" inkscape:pageopacity="0.0" inkscape:pageshadow="2" inkscape:zoom="1.8101934" inkscape:cx="133.84136" inkscape:cy="95.931404" inkscape:document-units="px" inkscape:current-layer="layer1" inkscape:window-width="853" inkscape:window-height="573" inkscape:window-x="426" inkscape:window-y="200"/>
  <g inkscape:label="Layer 1" inkscape:groupmode="layer" id="layer1" transform="translate(-201.2558,-613.5428)">
    <path style="fill:#ffa104;fill-opacity:1;stroke:none;stroke-width:0.44999999;stroke-miterlimit:4;stroke-dasharray:none;stroke-opacity:1" d="M 379.66206,613.54276 C 366.43806,613.54275 364.38656,613.76176 363.22456,615.29276 C 361.37156,617.73475 361.50231,619.22676 363.81831,621.54276 C 365.58431,623.30875 367.14931,623.54276 377.19331,623.54276 C 385.12331,623.54275 388.87606,623.92176 389.53706,624.79276 C 390.65906,626.27275 394.81831,636.45101 394.81831,637.69901 C 394.81831,638.176 373.91356,638.54276 348.34956,638.54276 L 301.84956,638.54276 L 299.84956,634.60526 C 298.73856,632.42727 297.81831,630.44201 297.81831,630.19901 C 297.81831,629.957 302.59206,629.20151 308.41206,628.51151 C 320.30305,627.10251 324.64106,625.01226 321.78706,622.10526 C 320.50605,620.79927 316.95831,620.48976 301.06831,620.29276 C 288.02231,620.13175 281.54606,620.40876 280.78706,621.16776 C 280.17405,621.78075 279.83081,624.03276 280.00581,626.16776 C 280.28681,629.60275 280.57682,631.56093 283.75581,631.16776 L 288.5602,630.57357 L 294.79509,642.36183 L 275.28483,672.26831 C 261.35329,668.10667 248.72653,667.13872 234.44331,671.76151 C 227.56331,674.63851 217.82156,681.57676 213.34956,686.79276 C 207.53057,693.58175 202.95956,703.90001 201.59956,713.32401 C 201.44984,714.36201 201.33528,715.40953 201.25581,716.44901 L 201.25581,723.60526 C 202.7362,743.87505 216.77499,762.84353 236.44331,769.38651 C 245.57131,772.42351 245.76931,772.46651 255.31831,772.13651 C 262.47131,771.88951 265.93056,771.20376 272.09956,768.79276 C 281.10156,765.27475 285.29404,761.8008 294.69331,751.54276 C 304.22931,741.13549 305.20743,729.23455 305.56831,726.10526 C 306.35731,725.80227 314.15706,725.54276 322.91206,725.54276 L 338.81831,725.54276 L 338.97456,733.54276 C 339.06656,737.94275 338.76524,743.57372 338.81024,744.53572 C 338.87524,745.90071 338.36681,745.11326 335.00581,745.35526 C 331.21581,745.62827 330.73181,745.93026 331.00581,747.85526 C 331.25581,749.61227 332.09056,750.12951 335.22456,750.38651 C 337.37256,750.56251 342.53238,749.73773 343.82238,749.41473 L 344.09452,725.25344 L 350.81831,716.85526 C 354.66531,712.01227 358.14431,707.59276 358.56831,707.04276 C 358.99231,706.49275 360.95306,704.01776 362.91206,701.54276 C 364.87106,699.06775 374.02481,687.48076 383.25581,675.79276 C 392.48581,664.10575 400.35881,654.54276 400.75581,654.54276 C 401.15181,654.54275 401.98031,655.55576 402.56831,656.79276 C 406.14831,664.32675 408.06806,669.34326 408.53706,672.23026 C 409.00106,675.09227 408.73631,675.63951 406.44331,676.51151 C 402.47031,678.02251 391.65931,689.50851 388.44331,695.63651 C 384.44431,703.25651 381.81831,712.99551 381.81831,720.26151 C 381.81831,730.98151 389.03706,748.66876 396.41206,756.04276 C 416.47306,776.10375 445.41581,777.93151 467.25581,760.51151 C 474.87814,753.74377 481.33696,744.85142 484.44331,735.04276 C 486.59831,727.90075 486.87356,712.97976 484.97456,707.04276 C 477.47056,683.58075 457.46331,668.19501 434.81831,668.44901 L 418.44331,669.04276 L 413.25581,656.04276 C 403.16481,630.76475 397.96281,618.39426 396.38081,615.98026 C 394.79981,613.56727 394.58906,613.54276 379.66206,613.54276 z M 308.59956,648.54276 L 349.22456,648.54276 C 383.31756,648.54275 389.81831,648.77701 389.81831,649.94901 C 389.81831,651.043 378.40506,666.16351 367.41206,679.63651 C 366.69606,680.51351 363.83309,684.42697 360.78706,688.13651 L 343.84956,708.76346 L 343.81831,695.82401 C 346.4227,695.76162 351.65238,695.79528 351.498,692.49589 C 351.34362,689.19649 344.07854,690.09996 339.03315,690.30643 L 339.53706,709.18339 L 308.59956,648.54276 z M 298.38081,654.54276 C 298.97981,654.54275 301.64231,658.48076 304.31831,663.29276 C 306.99431,668.10575 314.52206,681.46301 321.03706,692.94901 C 327.55205,704.436 332.76588,714.3917 332.31831,714.38651 L 305.34956,714.07401 C 302.44743,699.76628 294.21235,688.30923 284.3277,677.71564 L 298.38081,654.54276 z M 435.06831,678.76151 C 444.62931,679.16351 447.19731,679.65026 452.19331,681.98026 C 459.59631,685.43127 469.20931,695.06176 472.69331,702.54276 C 474.98331,707.45875 476.80731,709.38851 476.94331,720.76151 C 478.32779,732.27423 471.10657,742.15717 463.59956,750.38651 C 452.96356,760.69451 437.41456,764.88026 423.72456,761.10526 C 403.14256,755.42927 389.48881,735.38601 392.63081,715.44901 C 394.38681,704.304 397.38631,698.01901 404.31831,690.94901 C 412.38331,682.724 413.83931,682.66676 416.81831,690.54276 C 417.54631,692.46775 419.09506,696.29276 420.28706,699.04276 C 421.47906,701.79275 424.22981,708.42251 426.38081,713.76151 C 430.79881,724.72951 433.32931,727.23201 436.81831,724.07401 C 439.68662,720.07369 437.15813,714.1974 434.00787,707.38159 C 432.31587,704.27358 423.81831,681.34226 423.81831,679.85526 C 426.19187,677.4869 431.72507,678.62803 435.06831,678.76151 z M 270.54816,683.11133 C 262.73983,696.91187 244.73612,720.49443 246.91025,723.46818 C 249.18441,726.57875 253.43381,725.54276 273.63081,725.54276 L 295.09956,725.54276 C 292.90058,755.34464 262.91221,760.55105 251.23392,760.15181 C 232.04541,759.50917 211.84384,744.83453 212.03706,717.91776 C 212.23028,691.2772 240.79825,672.84271 270.54816,683.11133 z M 279.47456,687.57401 C 286.47098,693.95221 293.2906,700.22562 294.53234,714.24851 L 262.41987,714.70682 L 279.47456,687.57401 z " id="path3031" sodipodi:nodetypes="cssssscccssscsssccccssccssszccccsssscccssssssssscccscccscccssscczccccsssccccssccssssssccccczccszccccc"/>
  </g>
  <metadata>
    <rdf:RDF>
      <cc:Work>
        <dc:format>image/svg+xml</dc:format>
        <dc:type rdf:resource="http://purl.org/dc/dcmitype/StillImage"/>
        <cc:license rdf:resource="http://creativecommons.org/licenses/publicdomain/"/>
        <dc:publisher>
          <cc:Agent rdf:about="http://openclipart.org/">
            <dc:title>Open Clip Art Library</dc:title>
          </cc:Agent>
        </dc:publisher>
        <dc:title>Bicycle Sign Symbol</dc:title>
        <dc:date>2006-12-26T00:00:00</dc:date>
        <dc:description>Stylized silhouette of a bicycle.</dc:description>
        <dc:source>http://openclipart.org/detail/3434/-by--3434</dc:source>
        <dc:creator>
          <cc:Agent>
            <dc:title>lunanaut</dc:title>
          </cc:Agent>
        </dc:creator>
        <dc:subject>
          <rdf:Bag>
            <rdf:li>bicycle</rdf:li>
            <rdf:li>bike</rdf:li>
            <rdf:li>clip art</rdf:li>
            <rdf:li>clipart</rdf:li>
            <rdf:li>monochrome</rdf:li>
            <rdf:li>symbol</rdf:li>
            <rdf:li>transport</rdf:li>
            <rdf:li>transportation</rdf:li>
            <rdf:li>vehicle</rdf:li>
          </rdf:Bag>
        </dc:subject>
      </cc:Work>
      <cc:License rdf:about="http://creativecommons.org/licenses/publicdomain/">
        <cc:permits rdf:resource="http://creativecommons.org/ns#Reproduction"/>
        <cc:permits rdf:resource="http://creativecommons.org/ns#Distribution"/>
        <cc:permits rdf:resource="http://creativecommons.org/ns#DerivativeWorks"/>
      </cc:License>
    </rdf:RDF>
  </metadata>
</svg>