<?xml version="1.0" encoding="UTF-8" standalone="no"?>
<!-- Generator: Adobe Illustrator 15.0.0, SVG Export Plug-In . SVG Version: 6.00 Build 0)  -->

<svg
   xmlns:dc="http://purl.org/dc/elements/1.1/"
   xmlns:cc="http://creativecommons.org/ns#"
   xmlns:rdf="http://www.w3.org/1999/02/22-rdf-syntax-ns#"
   xmlns:svg="http://www.w3.org/2000/svg"
   xmlns="http://www.w3.org/2000/svg"
   xmlns:sodipodi="http://sodipodi.sourceforge.net/DTD/sodipodi-0.dtd"
   xmlns:inkscape="http://www.inkscape.org/namespaces/inkscape"
   version="1.1"
   x="0px"
   y="0px"
   width="70"
   height="70"
   viewBox="0 0 70 70"
   enable-background="new 0 0 30 30"
   xml:space="preserve"
   id="svg2"
   inkscape:version="0.48.4 r9939"
   sodipodi:docname="refresh.svg"
   inkscape:export-filename="/home/mkiol/dev/Qt/cyklop/qml/cyklop/icons/menu.png"
   inkscape:export-xdpi="90"
   inkscape:export-ydpi="90"><metadata
     id="metadata19"><rdf:RDF><cc:Work
         rdf:about=""><dc:format>image/svg+xml</dc:format><dc:type
           rdf:resource="http://purl.org/dc/dcmitype/StillImage" /><dc:title></dc:title></cc:Work></rdf:RDF></metadata><defs
     id="defs17" /><sodipodi:namedview
     pagecolor="#ffffff"
     bordercolor="#666666"
     borderopacity="1"
     objecttolerance="10"
     gridtolerance="10"
     guidetolerance="10"
     inkscape:pageopacity="0"
     inkscape:pageshadow="2"
     inkscape:window-width="1266"
     inkscape:window-height="765"
     id="namedview15"
     showgrid="false"
     inkscape:zoom="4.52"
     inkscape:cx="27.014738"
     inkscape:cy="15"
     inkscape:window-x="369"
     inkscape:window-y="169"
     inkscape:window-maximized="0"
     inkscape:current-layer="layer3" /><g
     id="DO_NOT_EDIT_-_BOUNDING_BOX"
     transform="translate(0,40)"><rect
       id="BOUNDING_BOX"
       width="30"
       height="30"
       x="0"
       y="0"
       style="fill:none" /></g><g
     inkscape:groupmode="layer"
     id="layer2"
     inkscape:label="Tlo"
     transform="translate(0,40)"
     sodipodi:insensitive="true"
     style="display:inline" /><g
     inkscape:groupmode="layer"
     id="layer1"
     inkscape:label="Refresh"
     transform="translate(0,40)"
     sodipodi:insensitive="true"
     style="display:none"><g
       id="PLACE_YOUR_GRAPHIC_HERE"
       transform="matrix(1.2764803,0,0,1.2764803,15.861997,-24.147204)"><path
         style="opacity:0.3"
         inkscape:connector-curvature="0"
         d="M 11.169,6.996 C 12.308,6.367 13.609,6 15,6 c 4.41,0 8,3.588 8,8 h 4 C 27,7.373 21.627,2 15,2 12.845,2 10.828,2.576 9.082,3.572 L 7.514,1 1.987,10 H 13 L 11.169,6.996 z M 16.986,18 18.83,21.004 C 17.691,21.631 16.391,22 15,22 10.589,22 7,18.41 7,14 H 3 c 0,6.627 5.373,12 12,12 2.16,0 4.18,-0.58 5.93,-1.58 L 22.514,27 28,18 H 16.986 z"
         id="path7" /><path
         style="opacity:0.15"
         inkscape:connector-curvature="0"
         d="m 22.514,29 c -0.348,0 -0.67,-0.181 -0.853,-0.477 L 20.565,26.738 C 18.827,27.566 16.922,28 15,28 7.832,28 2,22.168 2,15 2,14.448 2.448,14 3,14 h 4 c 0.552,0 1,0.448 1,1 0,3.859 3.14,7 7,7 0.822,0 1.622,-0.145 2.39,-0.432 L 16.134,19.523 C 15.945,19.214 15.937,18.828 16.113,18.511 16.29,18.195 16.624,18 16.986,18 H 28 c 0.361,0 0.695,0.195 0.872,0.511 0.177,0.314 0.17,0.701 -0.019,1.01 l -5.486,9 C 23.186,28.818 22.863,29 22.515,29 c 0,0 0,0 -0.001,0 z M 23,16 c -0.553,0 -1,-0.448 -1,-1 0,-3.86 -3.141,-7 -7,-7 -0.826,0 -1.627,0.145 -2.395,0.432 l 1.249,2.048 c 0.188,0.309 0.195,0.695 0.018,1.01 C 13.695,11.805 13.361,12 13,12 H 1.986 C 1.624,12 1.29,11.804 1.113,11.488 0.936,11.172 0.944,10.785 1.134,10.476 l 5.527,-9 C 6.843,1.181 7.166,1 7.514,1 c 0,0 10e-4,0 10e-4,0 0.348,0 0.671,0.182 0.853,0.479 L 9.45,3.253 C 11.182,2.431 13.082,2 15,2 c 7.168,0 13,5.832 13,13 0,0.552 -0.447,1 -1,1 h -4 z"
         id="path9" /><path
         style="opacity:0.15"
         inkscape:connector-curvature="0"
         d="M 11.169,7.996 C 12.308,7.367 13.609,7 15,7 c 4.41,0 8,3.588 8,8 h 4 C 27,8.373 21.627,3 15,3 12.845,3 10.828,3.576 9.082,4.572 L 7.514,2 1.987,11 H 13 L 11.169,7.996 z M 16.986,19 18.83,22.004 C 17.691,22.631 16.391,23 15,23 10.589,23 7,19.41 7,15 H 3 c 0,6.627 5.373,12 12,12 2.16,0 4.18,-0.58 5.93,-1.58 L 22.514,28 28,19 H 16.986 z"
         id="path11" /><path
         style="fill:#ffffff"
         inkscape:connector-curvature="0"
         d="M 11.169,7.996 C 12.308,7.367 13.609,7 15,7 c 4.41,0 8,3.588 8,8 h 4 C 27,8.373 21.627,3 15,3 12.845,3 10.828,3.576 9.082,4.572 L 7.514,2 1.987,11 H 13 L 11.169,7.996 z M 16.986,19 18.83,22.004 C 17.691,22.631 16.391,23 15,23 10.589,23 7,19.41 7,15 H 3 c 0,6.627 5.373,12 12,12 2.16,0 4.18,-0.58 5.93,-1.58 L 22.514,28 28,19 H 16.986 z"
         id="path13" /></g></g><g
     inkscape:groupmode="layer"
     id="layer3"
     inkscape:label="Menu"
     style="display:inline"><g
       id="g3859"
       transform="matrix(1.3982301,0,0,1.3982301,14.026549,14.026549)"><g
         id="DO_NOT_EDIT_-_BOUNDING_BOX-4"><rect
           height="30"
           width="30"
           id="BOUNDING_BOX-5"
           x="0"
           y="0"
           style="fill:none" /></g><g
         id="PLACE_YOUR_GRAPHIC_HERE-2"><path
           id="path3843"
           d="M 25,19 H 5 c -1.1,0 -2,0.9 -2,2 0,1.1 0.9,2 2,2 h 20 c 1.1,0 2,-0.9 2,-2 0,-1.1 -0.9,-2 -2,-2 z M 5,9 H 25 C 26.1,9 27,8.1 27,7 27,5.899 26.1,5 25,5 H 5 C 3.9,5 3,5.899 3,7 3,8.1 3.9,9 5,9 z m 20,3 H 5 c -1.1,0 -2,0.899 -2,2 0,1.099 0.9,2 2,2 h 20 c 1.1,0 2,-0.9 2,-2 0,-1.101 -0.9,-2 -2,-2 z"
           inkscape:connector-curvature="0"
           style="opacity:0.3" /><path
           id="path3845"
           d="M 5,25 C 3.346,25 2,23.654 2,22 2,20.346 3.346,19 5,19 h 20 c 1.654,0 3,1.346 3,3 0,1.654 -1.346,3 -3,3 H 5 z M 5,18 C 3.346,18 2,16.654 2,15 2,13.346 3.346,12 5,12 h 20 c 1.654,0 3,1.346 3,3 0,1.654 -1.346,3 -3,3 H 5 z M 5,11 C 3.346,11 2,9.654 2,8 2,6.346 3.346,5 5,5 h 20 c 1.654,0 3,1.346 3,3 0,1.654 -1.346,3 -3,3 H 5 z"
           inkscape:connector-curvature="0"
           style="opacity:0.15" /><path
           id="path3847"
           d="M 25,20 H 5 c -1.1,0 -2,0.9 -2,2 0,1.1 0.9,2 2,2 h 20 c 1.1,0 2,-0.9 2,-2 0,-1.1 -0.9,-2 -2,-2 z M 5,10 H 25 C 26.1,10 27,9.1 27,8 27,6.899 26.1,6 25,6 H 5 C 3.9,6 3,6.899 3,8 c 0,1.1 0.9,2 2,2 z m 20,3 H 5 c -1.1,0 -2,0.899 -2,2 0,1.099 0.9,2 2,2 h 20 c 1.1,0 2,-0.9 2,-2 0,-1.101 -0.9,-2 -2,-2 z"
           inkscape:connector-curvature="0"
           style="opacity:0.15" /><path
           id="path3849"
           d="M 25,20 H 5 c -1.1,0 -2,0.9 -2,2 0,1.1 0.9,2 2,2 h 20 c 1.1,0 2,-0.9 2,-2 0,-1.1 -0.9,-2 -2,-2 z M 5,10 H 25 C 26.1,10 27,9.1 27,8 27,6.899 26.1,6 25,6 H 5 C 3.9,6 3,6.899 3,8 c 0,1.1 0.9,2 2,2 z m 20,3 H 5 c -1.1,0 -2,0.899 -2,2 0,1.099 0.9,2 2,2 h 20 c 1.1,0 2,-0.9 2,-2 0,-1.101 -0.9,-2 -2,-2 z"
           inkscape:connector-curvature="0"
           style="fill:#ffffff" /><rect
           id="rect3851"
           height="30"
           width="30"
           x="0"
           y="0"
           style="fill:none" /></g></g></g></svg>